<svg xmlns="http://www.w3.org/2000/svg" width="204" height="192">

<path style="fill:#b1b1b1; stroke:none;" d="M46 34C42.9641 35.0004 42.5057 35.8628 43 39C54.7229 30.7435 65.9024 18.4267 80.0895 14.0895C85.294 12.4984 89.7267 12.8945 95 12.625C130.395 10.8157 168.626 30.9749 179 67C180.3 66.3501 180 66.8532 180 65C180.888 67.1804 181.631 69.1056 183 71C180.408 75.3688 183.119 81.1575 183.714 86C184.811 94.9336 182.445 104.208 184 113L181 112C181.707 117.811 178.048 123.849 175.472 129C168.258 143.43 158.28 156.289 143 163C141.902 167.729 135.002 167.686 131 169.194C126.054 171.059 120.074 173.686 114.866 174.472C106.915 175.673 98.0746 174.748 90 175C91.4785 174.014 91.2032 174 93 174C86.4448 171.172 78.7656 170.636 72 167.769C56.6747 161.274 43.8964 150.032 35.054 136C31.3928 130.19 27.695 123.928 27 117C25.7003 117.65 26 117.147 26 119C24.8644 116.559 24.1465 114.6 22 113C22.6146 110.538 22.895 109.682 21 108C22.4301 102.177 23.132 96.0165 22.9853 90C22.8969 86.3703 21.7974 82.6516 22.8503 79.0895C24.8722 72.2491 27.5661 64.3118 30.8904 58C34.0891 51.9269 38.9497 47.2181 38 40C33.4146 42.5151 31.1992 47.5868 28.6042 52C21.4826 64.111 18 79.0029 18 93C18 125.645 36.8104 157.537 67 171.135C81.4338 177.636 96.3769 179 112 179C110.752 178.315 110.452 178.251 109 178C115.795 175.973 123.181 176.451 130 174.613C144.152 170.799 158.236 161.039 167.7 150C205.513 105.892 188.42 33.1274 133 13.054C110.667 4.96495 85.1361 6.39903 64 17.2593C57.7853 20.4525 45.883 26.1712 46 34z" data-index="1"></path>
<path style="fill:#d7d7d7; stroke:none;" d="M123.667 10.3333C123.222 10.7778 124.278 10.7222 124.333 10.6667C124.778 10.2223 123.722 10.2778 123.667 10.3333z" data-index="2"></path>
<path style="fill:#a3a3a3; stroke:none;" d="M72 17C77.4355 18.6071 86.5092 14.5436 92 13C85.6403 10.4062 77.9518 14.761 72 17z" data-index="3"></path>
<path style="fill:#cfcfcf; stroke:none;" d="M96 12C100.217 13.7693 105.459 13 110 13C105.783 11.2307 100.541 12 96 12z" data-index="4"></path>

<path style="fill:#e1e1e1; stroke:none;" d="M114 13C115.248 13.6848 115.548 13.7488 117 14C115.752 13.3152 115.452 13.2512 114 13z" data-index="6"></path>
<path style="fill:#a7a7a7; stroke:none;" d="M42 40C43.0247 37.0867 43.6897 35.1834 46 33C41.2903 32.9255 40.4958 35.9479 42 40z" data-index="7"></path>
<path style="fill:#b9b9b9; stroke:none;" d="M39 44C41.3711 41.7163 41.5789 40.2105 41 37C37.7369 38.898 37.7849 40.5443 39 44z" data-index="8"></path>

<path style="fill:#a3a3a3; stroke:none;" d="M180 65C180.173 68.17 180.356 70.1357 183 72C182.096 69.5967 181.258 67.2275 180 65z" data-index="10"></path>

<path style="fill:#a1a1a1; stroke:none;" d="M23 76C22.4379 79.0251 22.0636 81.9221 22 85C23.4038 82.0784 24.1043 79.0796 23 76z" data-index="12"></path>
<path style="fill:#d1d1d1; stroke:none;" d="M23 80L23 83C23.6961 81.4463 23.6961 81.5537 23 80z" data-index="13"></path>
<path style="fill:#f1f1f1; stroke:none;" d="M188 88L188 99C189.431 95.59 189.431 91.41 188 88z" data-index="14"></path>

<path style="fill: rgb(215, 215, 215); stroke: none; visibility: hidden;" d="M163.667 97.3333C163.222 97.7777 164.278 97.7222 164.333 97.6667C164.778 97.2222 163.722 97.2778 163.667 97.3333z" data-index="16"></path>
<path style="fill:#b5b5b5; stroke:none;" d="M39 104C44.303 107.095 50.7542 108.81 55.7762 112.225C58.8945 114.345 60.0732 118.231 63.0548 120.566C68.3509 124.715 76.2277 123.104 82 121L81 118L87 118L86 120C91.3101 119.826 92.8256 118.31 93 113C81.6248 112.071 69.6967 108.609 59 104.714C54.3375 103.016 49.0785 98.8764 44.1049 98.5386C40.7191 98.3086 39.8094 101.364 39 104z" data-index="17"></path>
<path style="fill:#bfbfbf; stroke:none;" d="M162 98C163.334 99.9023 163.663 99.9664 166 100C164.457 98.7333 163.952 98.5108 162 98z" data-index="18"></path>
<path style="fill:#b1b1b1; stroke:none;" d="M113 113L114 120C123.116 119.307 132.006 125.682 140.996 121.991C146.406 119.77 147.923 113.845 153.019 111.182C158.011 108.573 167.018 106.87 166 100C158.501 99.8393 154.99 103.941 148 105.879C137.024 108.922 124.376 112.008 113 113z" data-index="19"></path>
<path style="fill:#a3a3a3; stroke:none;" d="M22 100L21 108C22.3195 109.956 22.2995 110.608 22 113C23.7244 114.953 24.3447 116.463 25 119C26.8007 114.34 24.0441 104.553 22 100z" data-index="20"></path>

<path style="fill: rgb(205, 205, 205); stroke: none; visibility: hidden;" d="M183 101L183 104C183.696 102.446 183.696 102.554 183 101M162.667 102.333C162.222 102.778 163.278 102.722 163.333 102.667C163.778 102.222 162.722 102.278 162.667 102.333M23.3333 104.667C23.2778 104.722 23.2222 105.778 23.6667 105.333C23.7222 105.278 23.7778 104.222 23.3333 104.667z" data-index="22"></path>
<path style="fill:#d1d1d1; stroke:none;" d="M187 104L187 107C187.696 105.446 187.696 105.554 187 104z" data-index="23"></path>

<path style="fill:#c3c3c3; stroke:none;" d="M24.3333 110.667C24.2778 110.722 24.2222 111.778 24.6667 111.333C24.7222 111.278 24.7778 110.222 24.3333 110.667z" data-index="25"></path>

<path style="fill: rgb(213, 213, 213); stroke: none; visibility: hidden;" d="M116.667 112.333C116.222 112.778 117.278 112.722 117.333 112.667C117.778 112.222 116.722 112.278 116.667 112.333z" data-index="27"></path>

<path style="fill: rgb(189, 189, 189); stroke: none; visibility: hidden;" d="M180.333 116.667C180.278 116.722 180.222 117.778 180.667 117.333C180.722 117.278 180.778 116.222 180.333 116.667z" data-index="29"></path>
<path style="fill:#a5a5a5; stroke:none;" d="M81 120L87 119C84.4708 117.961 82.8243 117.907 81 120z" data-index="30"></path>
<path style="fill:#cbcbcb; stroke:none;" d="M118 119C119.248 119.685 119.548 119.749 121 120C119.752 119.315 119.452 119.251 118 119z" data-index="31"></path>
<path style="fill:#c3c3c3; stroke:none;" d="M69 123C70.7691 123.779 72.0359 123.912 74 124C72.231 123.221 70.964 123.088 69 123M131 123C133.332 123.985 135.457 123.981 138 124C135.668 123.015 133.543 123.019 131 123z" data-index="32"></path>

<path style="fill:#d1d1d1; stroke:none;" d="M181 127L182 128L181 127z" data-index="34"></path>

<path style="fill:#b3b3b3; stroke:none;" d="M89 141C90.6593 141.406 91.2418 141.309 93 141C86.707 144.605 86.4889 145.91 86 153C94.4557 152.825 102.452 151.668 111 152.039C113.838 152.163 118.067 153.643 120.396 151.382C125.574 146.353 117.058 139.386 112.999 137.519C104.1 133.424 97.1296 136.715 89 141z" data-index="36"></path>
<path style="fill:#a9a9a9; stroke:none;" d="M87 152C85.6384 145.987 87.4909 144.068 93 142C91.3407 141.594 90.7582 141.691 89 142C92.4689 139.636 96.0228 138.297 100 137C92.6194 134.383 77.763 146.011 87 152z" data-index="37"></path>

<path style="fill: rgb(165, 165, 165); stroke: none; visibility: hidden;" d="M166 144C163.87 146.279 162.299 148.181 161 151C163.643 149.08 166.076 147.392 166 144z" data-index="39"></path>
<path style="fill:#dddddd; stroke:none;" d="M97 151C98.5061 151.683 99.3148 151.826 101 152C99.494 151.317 98.6852 151.174 97 151z" data-index="40"></path>

<path style="fill: rgb(161, 161, 161); stroke: none; visibility: hidden;" d="M137 167C139.764 167.47 141.553 166.369 144 165C141.236 164.53 139.447 165.631 137 167z" data-index="42"></path>

<path style="fill: rgb(203, 203, 203); stroke: none; visibility: hidden;" d="M112 173C113.769 173.779 115.036 173.912 117 174C115.231 173.221 113.964 173.088 112 173z" data-index="44"></path>
<path style="fill:#9f9f9f; stroke:none;" d="M90 174C92.0521 174.874 93.7472 174.953 96 175C93.9479 174.126 92.2528 174.047 90 174z" data-index="45"></path>

<path style="fill:#a1a1a1; stroke:none;" d="M112 174C113.769 174.779 115.036 174.912 117 175C115.231 174.221 113.964 174.088 112 174z" data-index="47"></path>
<path style="fill:#9f9f9f; stroke:none;" d="M117 176C120.047 177.243 122.807 176.591 126 176C123.056 174.944 120.107 175.756 117 176z" data-index="48"></path>
<path style="fill:#cbcbcb; stroke:none;" d="M86.6667 177.333C86.2222 177.778 87.2778 177.722 87.3333 177.667C87.7778 177.222 86.7222 177.278 86.6667 177.333z" data-index="49"></path>
<path style="fill:#a1a1a1; stroke:none;" d="M109 177C111.613 178.098 114.165 177.993 117 178C114.387 176.902 111.835 177.007 109 177z" data-index="50"></path>
<path style="fill:#c7c7c7; stroke:none;" d="M117 177C118.248 177.685 118.548 177.749 120 178C118.752 177.315 118.452 177.251 117 177M92 178C93.5061 178.683 94.3148 178.826 96 179C94.494 178.317 93.6852 178.174 92 178z" data-index="51"></path>
</svg>